<?xml version="1.0" encoding="utf-8"?>
<!-- Generator: Adobe Illustrator 19.1.0, SVG Export Plug-In . SVG Version: 6.00 Build 0)  -->
<svg version="1.1" id="Layer_2" xmlns="http://www.w3.org/2000/svg" xmlns:xlink="http://www.w3.org/1999/xlink" x="0px" y="0px"
	 viewBox="0 0 1920 650" style="enable-background:new 0 0 1920 650;" xml:space="preserve">
<style type="text/css">
	.st0{fill:none;stroke:#C5D0FF;stroke-miterlimit:10;}
</style>
<polygon class="st0" points="1920.5,1153.5 1066.5,1153.5 1066.5,1542.5 478.5,1542.5 478.5,1443.5 -1659.5,1443.5 -1659.5,685.5 
	-1670.5,685.5 -1670.5,665.5 -1411.5,665.5 -1411.5,474.5 -1104.5,474.5 -1104.5,-241.5 -1080.5,-241.5 -1080.5,-277.5 
	762.5,-277.5 762.5,-232.5 994.5,-232.5 994.5,-115.5 1920.5,-115.5 1920.5,150.5 1979.5,150.5 1979.5,672.5 1920.5,672.5 "/>
<path class="st0" d="M1965,663.5h-98.5v232h-364v-231l7-22.9V458.5l5-11h134v-63h-146V205.4l-4.1-23l-3.9-67.8h-21.6l3.7,67.5
	l-4.1,24.7V643l5,22.2v270.3h235.8l11.2,8.9v73.3c0,0,0.5,7.8,11.2,8.1c10.8,0.2,10.8-9.1,10.8-11.8s0-103.6,0-103.6h-244v-15h391
	V688.1l-27.2,0.1"/>
<rect x="1775.2" y="671.1" class="st0" width="13.7" height="13.7"/>
<rect x="1776.1" y="576.4" class="st0" width="47.1" height="47.2"/>
<rect x="1780.3" y="580.4" class="st0" width="39" height="39"/>
<rect x="1776.7" y="207.4" class="st0" width="46.5" height="46.6"/>
<rect x="1780.5" y="211.3" class="st0" width="38.4" height="38.6"/>
<rect x="1753.5" y="253.3" class="st0" width="46.4" height="46.9"/>
<rect x="1642.8" y="257.7" class="st0" width="37.9" height="38.4"/>
<rect x="1753.5" y="530.6" class="st0" width="46.4" height="45.3"/>
<rect x="1642.1" y="534.1" class="st0" width="38.9" height="39.2"/>
<rect x="1522.6" y="530.6" class="st0" width="46.8" height="46"/>
<rect x="1526.7" y="534.1" class="st0" width="38.2" height="38.4"/>
<rect x="1545.8" y="300.2" class="st0" width="230.8" height="230.4"/>
<rect x="1557.3" y="311.3" class="st0" width="207.5" height="208"/>
<rect x="1569.4" y="322.6" class="st0" width="184.1" height="184.9"/>
<rect x="1469" y="394.7" class="st0" width="45.6" height="53.7"/>
<rect x="1595.6" y="334.9" class="st0" width="169.2" height="45.8"/>
<rect x="1595.6" y="334.9" class="st0" width="46.1" height="45.8"/>
<rect x="1522.1" y="252.5" class="st0" width="47.3" height="47.7"/>
<rect x="1526.4" y="257.3" class="st0" width="39" height="38.4"/>
<rect x="1753" y="22.4" class="st0" width="47.3" height="46.8"/>
<rect x="1642" y="26.3" class="st0" width="38.8" height="38.6"/>
<rect x="1522.1" y="22.4" class="st0" width="47.3" height="46.8"/>
<rect x="1526.1" y="26" class="st0" width="38.9" height="38.9"/>
<rect x="1494.5" y="89.9" class="st0" width="279.6" height="24.2"/>
<rect x="1472.9" y="89.9" class="st0" width="21.6" height="24.2"/>
<rect x="1684.1" y="205.9" class="st0" width="92.6" height="15.7"/>
<rect x="1592.1" y="205.9" class="st0" width="92" height="15.7"/>
<polygon class="st0" points="1498.4,205.8 1592.1,205.9 1592.1,221.6 1498.4,221.6 "/>
<line class="st0" x1="1687.5" y1="114" x2="1687.5" y2="89"/>
<line class="st0" x1="1592.5" y1="114" x2="1592.5" y2="89"/>
<line class="st0" x1="1641.1" y1="380" x2="1596.1" y2="335.3"/>
<line class="st0" x1="1818.7" y1="211.8" x2="1780.5" y2="249.9"/>
<line class="st0" x1="1819" y1="580.6" x2="1780.7" y2="619.2"/>
<line class="st0" x1="1680.6" y1="573.2" x2="1642.7" y2="535"/>
<line class="st0" x1="1642.7" y1="573.2" x2="1680.5" y2="535"/>
<line class="st0" x1="1564.5" y1="572" x2="1527.5" y2="534.7"/>
<line class="st0" x1="1526.9" y1="572" x2="1564.3" y2="534.7"/>
<path class="st0" d="M1607.2,449.2"/>
<path class="st0" d="M1643.6,395.7"/>
<path class="st0" d="M1606.8,396"/>
<path class="st0" d="M1643.3,449"/>
<line class="st0" x1="1606.6" y1="395.7" x2="1514.6" y2="394.7"/>
<circle class="st0" cx="1661.2" cy="415.4" r="34.2"/>
<circle class="st0" cx="1499.8" cy="602.3" r="7.2"/>
<circle class="st0" cx="1499.6" cy="233.7" r="9"/>
<circle class="st0" cx="1707.9" cy="602.7" r="6.6"/>
<circle class="st0" cx="1754" cy="510.5" r="6.6"/>
<circle class="st0" cx="1753.6" cy="418.5" r="7.6"/>
<circle class="st0" cx="1753.8" cy="325.6" r="6.9"/>
<circle class="st0" cx="1707.7" cy="233.4" r="6.6"/>
<rect x="1691.7" y="619.9" class="st0" width="92.5" height="15.9"/>
<rect x="1599.2" y="619.9" class="st0" width="92.5" height="15.9"/>
<polygon class="st0" points="1504.3,620.1 1599.2,619.9 1599.2,635.8 1504.3,635.8 "/>
<rect x="1320.3" y="911.6" class="st0" width="453.3" height="214.5"/>
<rect x="1408.6" y="948.2" class="st0" width="276" height="140"/>
<rect x="1408.7" y="949.3" class="st0" width="91.7" height="45.9"/>
<rect x="1457.5" y="952.8" class="st0" width="38.5" height="38.2"/>
<rect x="1411.2" y="952.2" class="st0" width="39.1" height="38.8"/>
<rect x="1453.3" y="1041" class="st0" width="47" height="46.8"/>
<rect x="1457.6" y="1045.1" class="st0" width="38.7" height="38.1"/>
<rect x="1592.4" y="948.6" class="st0" width="46.6" height="139.3"/>
<rect x="1596.2" y="952.7" class="st0" width="38.7" height="38.8"/>
<rect x="1596.1" y="998.7" class="st0" width="38.6" height="38.6"/>
<rect x="1596.1" y="1044.7" class="st0" width="38.9" height="38.8"/>
<circle class="st0" cx="1708.2" cy="1064.5" r="6.5"/>
<circle class="st0" cx="1707.8" cy="972.3" r="6.5"/>
<circle class="st0" cx="1384.6" cy="1064.3" r="7.2"/>
<circle class="st0" cx="1384.7" cy="972.9" r="7.8"/>
<rect x="1546.5" y="761.2" class="st0" width="45.6" height="46.6"/>
<rect x="1550.1" y="764.8" class="st0" width="38.1" height="38.6"/>
<rect x="1684.3" y="807" class="st0" width="46.8" height="46.6"/>
<rect x="1689" y="811.2" class="st0" width="37.9" height="38.3"/>
<circle class="st0" cx="1620.2" cy="1015.6" r="10.7"/>
<rect x="1379.7" y="484" class="st0" width="46.6" height="46.4"/>
<rect x="1384.5" y="487.8" class="st0" width="37.9" height="38.1"/>
<rect x="1379.7" y="298.9" class="st0" width="47.1" height="46.6"/>
<rect x="1383.6" y="303.2" class="st0" width="39.1" height="38.6"/>
<rect x="1402.8" y="-90.4" class="st0" width="58.4" height="254.1"/>
<rect x="1212.9" y="-86" class="st0" width="186.9" height="239.9"/>
<rect x="1135.4" y="105.8" class="st0" width="116.8" height="15.7"/>
<rect x="1252.7" y="10.2" class="st0" width="15.7" height="111.4"/>
<rect x="1329.4" y="30.8" class="st0" width="46.4" height="47.4"/>
<rect x="1283.2" y="-15" class="st0" width="45.8" height="92.5"/>
<rect x="1286.5" y="-10.6" class="st0" width="38.8" height="83.9"/>
<rect x="1333.2" y="35.2" class="st0" width="38.3" height="38.6"/>
<rect x="1319.2" y="689.1" class="st0" width="27.5" height="211.9"/>
<rect x="1288.3" y="668.5" class="st0" width="20.1" height="130.5"/>
<rect x="1345.4" y="54.3" class="st0" width="15.7" height="617.1"/>
<rect x="1277.5" y="668" class="st0" width="69" height="20.3"/>
<rect x="1277.5" y="677.1" class="st0" width="6.9" height="19.9"/>
<rect x="1000.2" y="676.2" class="st0" width="276.7" height="31.4"/>
<rect x="956.7" y="668" class="st0" width="320.8" height="8.5"/>
<rect x="1083.9" y="630.7" class="st0" width="308.6" height="37.3"/>
<rect x="1212" y="279" class="st0" width="14.7" height="389.5"/>
<circle class="st0" cx="1353.2" cy="54.3" r="8.3"/>
<circle class="st0" cx="1219.1" cy="275.9" r="8.8"/>
<rect x="1194.9" y="252.8" class="st0" width="46.8" height="93.2"/>
<rect x="1200.2" y="303.8" class="st0" width="37.6" height="37.9"/>
<rect x="1199.5" y="257.1" class="st0" width="37.9" height="38.6"/>
<rect x="756.7" y="155.4" class="st0" width="646.1" height="8.3"/>
<rect x="738.1" y="-273.4" class="st0" width="18.6" height="437.1"/>
<rect x="939.7" y="-56.1" class="st0" width="92.2" height="22.8"/>
<rect x="1055.7" y="35.4" class="st0" width="46.8" height="92.2"/>
<rect x="1059.9" y="39.3" class="st0" width="38.6" height="84.4"/>
<rect x="1112.6" y="105.6" class="st0" width="23.1" height="90.3"/>
<rect x="1117.8" y="56.8" class="st0" width="15.2" height="48.8"/>
<circle class="st0" cx="1125.1" cy="57.5" r="8.3"/>
<circle class="st0" cx="1125.6" cy="56.5" r="17.9"/>
<rect x="1170.7" y="30.8" class="st0" width="11.4" height="124.9"/>
<rect x="1182.8" y="31.1" class="st0" width="30.1" height="106"/>
<rect x="996.8" y="-90.6" class="st0" width="207" height="90.3"/>
<rect x="939.7" y="-56.1" class="st0" width="92.2" height="22.8"/>
<rect x="1077.8" y="131.3" class="st0" width="34.8" height="11.8"/>
<rect x="1063.6" y="129.5" class="st0" width="13.5" height="14.1"/>
<rect x="1063.5" y="0.3" class="st0" width="11.8" height="126.2"/>
<rect x="1195.5" y="484.5" class="st0" width="46.4" height="45.6"/>
<rect x="1199.9" y="488.1" class="st0" width="38.3" height="38"/>
<rect x="1287.6" y="391.4" class="st0" width="47.2" height="46.7"/>
<rect x="1292.5" y="395.8" class="st0" width="37.9" height="38.3"/>
<rect x="1103.4" y="390.8" class="st0" width="46.1" height="47.6"/>
<rect x="1107.6" y="395.7" class="st0" width="38.1" height="38.3"/>
<rect x="1011.1" y="298.6" class="st0" width="46.1" height="47.3"/>
<rect x="1015.3" y="303.3" class="st0" width="37.9" height="38.2"/>
<rect x="1010.6" y="483.5" class="st0" width="47.1" height="47.3"/>
<rect x="1014.3" y="487.5" class="st0" width="38.8" height="38"/>
<rect x="1112.9" y="176" class="st0" width="22.7" height="20.4"/>
<rect x="849.6" y="9.5" class="st0" width="46.4" height="46.4"/>
<rect x="854" y="13.3" class="st0" width="37.8" height="38.4"/>
<rect x="797.7" y="-174.3" class="st0" width="10.8" height="11.1"/>
<rect x="704.8" y="-174.9" class="st0" width="12.1" height="11.9"/>
<rect x="1166" y="742.5" class="st0" width="93.5" height="47.7"/>
<rect x="1170.9" y="748.4" class="st0" width="37.6" height="36.3"/>
<rect x="1216.6" y="747.5" class="st0" width="37.9" height="37.9"/>
<rect x="1074.7" y="743.9" class="st0" width="45.8" height="45.8"/>
<rect x="1078.5" y="747.6" class="st0" width="38.3" height="37.9"/>
<rect x="1073.9" y="1020.4" class="st0" width="47.1" height="46.4"/>
<rect x="1078.2" y="1024.1" class="st0" width="38.5" height="38.3"/>
<rect x="1166.4" y="1020" class="st0" width="46.5" height="47"/>
<rect x="1170.5" y="1024.2" class="st0" width="38.3" height="38.1"/>
<rect x="1074.3" y="882.2" class="st0" width="138.7" height="46.2"/>
<rect x="1170.4" y="885.9" class="st0" width="38.8" height="38.4"/>
<rect x="1124.9" y="885.9" class="st0" width="37.6" height="37.9"/>
<rect x="1078.3" y="885.8" class="st0" width="38.3" height="38.1"/>
<rect x="934.7" y="1051" class="st0" width="46.4" height="46.5"/>
<rect x="938.3" y="1055.3" class="st0" width="38.3" height="38"/>
<rect x="888.3" y="958.7" class="st0" width="46.4" height="93.2"/>
<rect x="892.2" y="962.8" class="st0" width="38.6" height="84.9"/>
<rect x="795.8" y="958.6" class="st0" width="47.1" height="92.7"/>
<rect x="750.4" y="1005.2" class="st0" width="45.4" height="46.1"/>
<rect x="703.5" y="958.9" class="st0" width="46.8" height="92.5"/>
<rect x="799.2" y="963.3" class="st0" width="38.8" height="83.9"/>
<rect x="754.1" y="1008.4" class="st0" width="37.8" height="39.2"/>
<rect x="707" y="962.6" class="st0" width="38.8" height="84.6"/>
<rect x="426.9" y="1137.9" class="st0" width="892.8" height="19.6"/>
<rect x="1003.8" y="708.2" class="st0" width="288.4" height="429.7"/>
<rect x="647.6" y="881.9" class="st0" width="344.4" height="251.2"/>
<rect x="656.9" y="672.4" class="st0" width="23.1" height="398.8"/>
<rect x="680" y="672.4" class="st0" width="69.2" height="26.5"/>
<rect x="769.1" y="801.7" class="st0" width="46.3" height="34.8"/>
<rect x="775.6" y="706.7" class="st0" width="33.4" height="95.2"/>
<rect x="774.2" y="673.4" class="st0" width="226" height="34.2"/>
<rect x="929.9" y="630.2" class="st0" width="154.3" height="14.2"/>
<rect x="888.5" y="275.4" class="st0" width="15" height="397.7"/>
<circle class="st0" cx="896.3" cy="275.4" r="7.8"/>
<rect x="876.9" y="257.4" class="st0" width="37.8" height="37.8"/>
<rect x="872.3" y="253.2" class="st0" width="46.6" height="46.4"/>
<rect x="757.2" y="-90.4" class="st0" width="231" height="246.3"/>
<rect x="792" y="21.6" class="st0" width="22.6" height="93.2"/>
<rect x="792" y="114.8" class="st0" width="22.9" height="92.5"/>
<rect x="792" y="207.4" class="st0" width="22.9" height="91.9"/>
<rect x="792" y="299.2" class="st0" width="22.9" height="92.9"/>
<rect x="792" y="392.1" class="st0" width="23.2" height="91.9"/>
<rect x="792" y="484" class="st0" width="22.9" height="92.5"/>
<rect x="792" y="576.6" class="st0" width="22.9" height="91.9"/>
<rect x="834.5" y="789.5" class="st0" width="46.3" height="46.1"/>
<rect x="873.8" y="848.8" class="st0" width="119" height="33.4"/>
<rect x="682.4" y="714.1" class="st0" width="184.4" height="12"/>
<rect x="657.1" y="789.6" class="st0" width="46.8" height="46.4"/>
<rect x="661.3" y="793.9" class="st0" width="38.4" height="38"/>
<rect x="939.2" y="537" class="st0" width="50.5" height="36.9"/>
<circle class="st0" cx="941.2" cy="230.8" r="8.3"/>
<circle class="st0" cx="1126.2" cy="230.5" r="8.2"/>
<circle class="st0" cx="1311.3" cy="230.5" r="8.6"/>
<circle class="st0" cx="803.3" cy="230.9" r="6.7"/>
<circle class="st0" cx="803.3" cy="600.1" r="8.1"/>
<circle class="st0" cx="941.9" cy="600.2" r="7.5"/>
<circle class="st0" cx="1126.5" cy="600" r="7.2"/>
<circle class="st0" cx="919" cy="720.6" r="6.8"/>
<circle class="st0" cx="919" cy="793.8" r="8.1"/>
<circle class="st0" cx="823" cy="793.9" r="6.7"/>
<circle class="st0" cx="725.9" cy="793.6" r="6.6"/>
<rect x="734.2" y="576.1" class="st0" width="46.4" height="46.6"/>
<rect x="738.1" y="580.2" class="st0" width="38.3" height="38.3"/>
<rect x="688.2" y="483.8" class="st0" width="45.9" height="46.2"/>
<rect x="691.9" y="487.8" class="st0" width="38.3" height="38.5"/>
<rect x="688.1" y="299.5" class="st0" width="46.4" height="46.2"/>
<rect x="692.2" y="303.3" class="st0" width="38" height="38.3"/>
<rect x="503.3" y="299.4" class="st0" width="46.3" height="46.1"/>
<rect x="507.7" y="303.5" class="st0" width="37.9" height="37.8"/>
<rect x="318.5" y="299.2" class="st0" width="46.6" height="46.4"/>
<rect x="322.9" y="303.7" class="st0" width="37.8" height="38.1"/>
<rect x="528.4" y="175" class="st0" width="86.3" height="19.4"/>
<rect x="503.4" y="161.4" class="st0" width="46.2" height="46.1"/>
<rect x="507.7" y="164.7" class="st0" width="37.6" height="38.5"/>
<circle class="st0" cx="526.9" cy="184.3" r="10.3"/>
<rect x="89.1" y="160.7" class="st0" width="46.4" height="46.6"/>
<rect x="93" y="164.5" class="st0" width="38.4" height="38.6"/>
<circle class="st0" cx="115.1" cy="183.3" r="11.8"/>
<polygon class="st0" points="615.5,194.4 628.5,203.1 628.5,175 615.5,175 "/>
<polygon class="st0" points="629.1,147.8 615.7,138.2 615.9,113.5 628.8,113.5 "/>
<path class="st0" d="M615.6,137.9c0,0-481-0.5-484.2-0.5s-3.9,2.4-3.9,5.2c0,2.8,0,43.4,0,43.4"/>
<path class="st0" d="M616,113.5H123.9c0,0-19.5,5.2-19.5,21.8s-1,46.4-1,46.4"/>
<rect x="629.2" y="41.5" class="st0" width="51" height="275.7"/>
<rect x="642.3" y="-168.1" class="st0" width="23.5" height="185.4"/>
<line class="st0" x1="642.3" y1="17.3" x2="629.2" y2="41.5"/>
<line class="st0" x1="665.8" y1="17.3" x2="680.2" y2="41.5"/>
<rect x="622.3" y="340.1" class="st0" width="62.8" height="531.1"/>
<rect x="507.6" y="872.3" class="st0" width="63.5" height="34.3"/>
<rect x="448.8" y="871.7" class="st0" width="45.8" height="46.4"/>
<rect x="454.8" y="794.5" class="st0" width="92.2" height="23.3"/>
<rect x="203.2" y="761.4" class="st0" width="46.9" height="138.8"/>
<rect x="207.6" y="858.2" class="st0" width="38.6" height="37.8"/>
<rect x="208.2" y="811.9" class="st0" width="37.4" height="37.4"/>
<rect x="208.1" y="764.8" class="st0" width="37.4" height="38.9"/>
<rect x="64.8" y="761.2" class="st0" width="46.3" height="46.6"/>
<rect x="69.1" y="765.1" class="st0" width="38.3" height="37.9"/>
<rect x="65" y="853.6" class="st0" width="46.8" height="46.4"/>
<rect x="69.4" y="857.8" class="st0" width="38.1" height="38.1"/>
<line class="st0" x1="629.2" y1="317.2" x2="622.3" y2="340.1"/>
<line class="st0" x1="685.1" y1="340.1" x2="680.2" y2="317.2"/>
<polyline class="st0" points="527.3,-75.7 516.5,-85.8 516.5,-104.5 527,-104.5 "/>
<path class="st0" d="M516-85.5H8.9c0,0-20.3,2.6-20.3-18s-0.2-32.4-0.2-32.4"/>
<path class="st0" d="M516-104.5H16.8c0,0-8.8,3.9-8.8-6.2S8-137,8-137"/>
<circle class="st0" cx="-2.2" cy="-139.1" r="11.6"/>
<rect x="-26.1" y="-161.7" class="st0" width="46.9" height="46.1"/>
<rect x="-21.7" y="-157.4" class="st0" width="37.8" height="37.8"/>
<polyline class="st0" points="526.7,-119.2 515.4,-128.5 515.9,-152.6 527.1,-152.4 "/>
<line class="st0" x1="515.4" y1="-128.5" x2="409.8" y2="-128.4"/>
<line class="st0" x1="516" y1="-152.5" x2="414" y2="-152.5"/>
<circle class="st0" cx="409.6" cy="-140.9" r="12.3"/>
<rect x="392.5" y="-157.6" class="st0" width="38.3" height="38"/>
<rect x="388.1" y="-161.8" class="st0" width="46.4" height="46.6"/>
<rect x="454.7" y="1018.2" class="st0" width="93.2" height="22.9"/>
<rect x="526.5" y="622.2" class="st0" width="46.1" height="6.7"/>
<rect x="385.4" y="667" class="st0" width="77.3" height="10.1"/>
<rect x="385.4" y="677.1" class="st0" width="77.3" height="14.2"/>
<polyline class="st0" points="589.5,870 589.5,737.1 551.5,697.6 551.5,629 "/>
<circle class="st0" cx="618.6" cy="230.7" r="8.1"/>
<circle class="st0" cx="433.9" cy="230.7" r="8.3"/>
<circle class="st0" cx="249" cy="230.7" r="8.1"/>
<circle class="st0" cx="64.3" cy="230.4" r="8.6"/>
<circle class="st0" cx="-120.4" cy="230.4" r="8.6"/>
<circle class="st0" cx="-372.3" cy="182.9" r="7.5"/>
<rect x="-392.6" y="165.2" class="st0" width="38.3" height="38.3"/>
<rect x="-396.5" y="161.2" class="st0" width="46.1" height="46.4"/>
<polyline class="st0" points="629,261.3 617.9,261.2 618,283.3 629.3,292.4 "/>
<path class="st0" d="M617,283.5h-865.9c0,0-14.6,3.3-14.6-24.8s0-72.7,0-72.7"/>
<path class="st0" d="M617,261.5h-854.1c0,0-12.8,4.5-12.4-10.6c0.3-15-0.7-68.3-0.7-68.3"/>
<rect x="503.3" y="299.4" class="st0" width="46.3" height="46.1"/>
<rect x="507.7" y="303.5" class="st0" width="37.9" height="37.8"/>
<rect x="318.5" y="299.2" class="st0" width="46.6" height="46.4"/>
<rect x="322.9" y="303.7" class="st0" width="37.8" height="38.1"/>
<rect x="133.9" y="298.9" class="st0" width="46.6" height="46.6"/>
<rect x="138" y="303.2" class="st0" width="38.6" height="38.4"/>
<rect x="-51" y="299.2" class="st0" width="46.9" height="46.6"/>
<rect x="-46.5" y="303" class="st0" width="38.1" height="38.6"/>
<rect x="-350.3" y="299.6" class="st0" width="46.6" height="46.4"/>
<rect x="-346.2" y="303.7" class="st0" width="38.3" height="38.3"/>
<rect x="502.8" y="437.3" class="st0" width="46.9" height="46.9"/>
<rect x="507.2" y="442.6" class="st0" width="38.1" height="36.8"/>
<rect x="502.8" y="484.2" class="st0" width="47.6" height="46.1"/>
<rect x="507.5" y="488.1" class="st0" width="38.1" height="38.3"/>
<rect x="88.7" y="437.5" class="st0" width="46.5" height="46.7"/>
<rect x="92.9" y="442" class="st0" width="38.8" height="38.4"/>
<rect x="135.2" y="484.3" class="st0" width="45.3" height="46.2"/>
<rect x="139.1" y="488.4" class="st0" width="37.4" height="38.3"/>
<rect x="-396.5" y="438.7" class="st0" width="46.4" height="45.6"/>
<rect x="-392.3" y="442.3" class="st0" width="38.1" height="38.1"/>
<rect x="-350.2" y="484.7" class="st0" width="46.4" height="46.3"/>
<rect x="-346.4" y="489.1" class="st0" width="38.6" height="37.8"/>
<circle class="st0" cx="-371.5" cy="458.8" r="8.1"/>
<circle class="st0" cx="116.4" cy="463.9" r="10"/>
<circle class="st0" cx="525.8" cy="461.6" r="10.2"/>
<rect x="322.6" y="487.9" class="st0" width="38.3" height="38.4"/>
<rect x="318.8" y="484" class="st0" width="46.3" height="46.3"/>
<rect x="318.3" y="575.9" class="st0" width="47.1" height="46.8"/>
<rect x="322.9" y="580.2" class="st0" width="37.8" height="38.1"/>
<polyline class="st0" points="623,355.3 612.5,355.1 611.5,373.2 622.3,383.7 "/>
<path class="st0" d="M612,355.5h-851.1c0,0-24.4,2.9-24.4,26.7s0,80.8,0,80.8"/>
<path class="st0" d="M612,373.5h-851.1c0,0-10.3-0.4-10.3,18.5c0,18.9,0.7,65.1,0.7,65.1"/>
<polyline class="st0" points="622.7,389.4 611.5,389.3 611.8,408.5 622.1,419.3 "/>
<path class="st0" d="M612,389.5H125.9c0,0-19.4,9.7-19.4,27.1s0,44.4,0,44.4"/>
<path class="st0" d="M612,408.5H127.8c0,0-2.3,5.4-2.3,12c0,6.6,0,42.5,0,42.5"/>
<rect x="48.2" y="731.8" class="st0" width="280.6" height="256.1"/>
<rect x="26.6" y="987.8" class="st0" width="382.6" height="8.8"/>
<rect x="328.8" y="669" class="st0" width="31.4" height="318.9"/>
<circle class="st0" cx="434.6" cy="600.1" r="8.2"/>
<circle class="st0" cx="249.8" cy="600.4" r="8.2"/>
<circle class="st0" cx="64.4" cy="600.4" r="9.2"/>
<circle class="st0" cx="-120.4" cy="600.1" r="6.9"/>
<circle class="st0" cx="-420.1" cy="600.9" r="8.8"/>
<rect x="-97.5" y="576.2" class="st0" width="47.1" height="46.8"/>
<rect x="-92.9" y="580.3" class="st0" width="38.1" height="38.1"/>
<rect x="-50.9" y="483.4" class="st0" width="47.1" height="47.3"/>
<rect x="-46.8" y="487.6" class="st0" width="38.4" height="38.9"/>
<path class="st0" d="M527-21.5h-881.1c0,0-7.4,4.8-7.4-3.7s0-112.8,0-112.8"/>
<path class="st0" d="M-263.5-138c0,0,0,89.8,0,112.8s24.4,23.7,24.4,23.7h869.2l12.3,10.1"/>
<circle class="st0" cx="-369.8" cy="-138.8" r="9.5"/>
<rect x="-392.3" y="-157.4" class="st0" width="38.4" height="38.4"/>
<rect x="-396.6" y="-162.5" class="st0" width="47.1" height="47.1"/>
<line class="st0" x1="629.9" y1="-1.7" x2="630.1" y2="-22.4"/>
</svg>
